{"title":"Faust 2011 720p BluRay x264 DTS-EA","uid":7151093,"size":6399237372,"categoryP":"video","categoryS":"hd___movies","magnet":"?xt=urn:btih:1a34522b49676c5851f836608eee10c6970aa05d&amp;dn=Faust+2011+720p+BluRay+x264+DTS-EA&amp;tr=udp%3A%2F%2Ftracker.openbittorrent.com%3A80&amp;tr=udp%3A%2F%2Fopen.demonii.com%3A1337&amp;tr=udp%3A%2F%2Ftracker.coppersurfer.tk%3A6969&amp;tr=udp%3A%2F%2Fexodus.desync.com%3A6969","seeders":4,"leechers":2,"uploader":"mfccorrea","files":1,"time":1333312189,"description":"A version of the German legend in which a man who sells his soul to the devil in exchange for knowledge.   \n\n\n General\n      Complete name : Faust 2011 720p BluRay x264 DTS-EA.mkv\n      Format : Matroska\n      File size : 5.96 GiB\n      Duration : 2h 19mn\n      Overall bit rate : 6 115 Kbps\n      Movie name : Aleksandr Sokurov-Faust (2011)\n      Encoded date : UTC 2012-03-31 10:08:45\n      Writing application : mkvmerge v5.4.0 ('Piper') built on Mar 10 2012 13:34:39\n      Writing library : libebml v1.2.3 + libmatroska v1.3.0\n   Video #1\n      ID : 1\n      Format : AVC\n      Format/Info : Advanced Video Codec\n      Format profile : &lt;a class=&quot;__cf_email__&quot; href=&quot;/cdn-cgi/l/email-protection&quot; data-cfemail=&quot;85cdece2edc5c9b1abb4&quot;&gt;[email&amp;#160;protected]&lt;/a&gt;&lt;script cf-hash='f9e31' type=&quot;text/javascript&quot;&gt;\n/* &lt;![CDATA[ */!function(){try{var t=&quot;currentScript&quot;in document?document.currentScript:function(){for(var t=document.getElementsByTagName(&quot;script&quot;),e=t.length;e--;)if(t[e].getAttribute(&quot;cf-hash&quot;))return t[e]}();if(t&amp;&amp;t.previousSibling){var e,r,n,i,c=t.previousSibling,a=c.getAttribute(&quot;data-cfemail&quot;);if(a){for(e=&quot;&quot;,r=parseInt(a.substr(0,2),16),n=2;a.length-n;n+=2)i=parseInt(a.substr(n,2),16)^r,e+=String.fromCharCode(i);e=document.createTextNode(e),c.parentNode.replaceChild(e,c)}}}catch(u){}}();/* ]]&gt; */&lt;/script&gt;\n      Format settings, CABAC : Yes\n      Format settings, ReFrames : 12 frames\n      Muxing mode : Container profile=&lt;a class=&quot;__cf_email__&quot; href=&quot;/cdn-cgi/l/email-protection&quot; data-cfemail=&quot;04516a6f6a6b736a44302a35&quot;&gt;[email&amp;#160;protected]&lt;/a&gt;&lt;script cf-hash='f9e31' type=&quot;text/javascript&quot;&gt;\n/* &lt;![CDATA[ */!function(){try{var t=&quot;currentScript&quot;in document?document.currentScript:function(){for(var t=document.getElementsByTagName(&quot;script&quot;),e=t.length;e--;)if(t[e].getAttribute(&quot;cf-hash&quot;))return t[e]}();if(t&amp;&amp;t.previousSibling){var e,r,n,i,c=t.previousSibling,a=c.getAttribute(&quot;data-cfemail&quot;);if(a){for(e=&quot;&quot;,r=parseInt(a.substr(0,2),16),n=2;a.length-n;n+=2)i=parseInt(a.substr(n,2),16)^r,e+=String.fromCharCode(i);e=document.createTextNode(e),c.parentNode.replaceChild(e,c)}}}catch(u){}}();/* ]]&gt; */&lt;/script&gt;\n      Codec ID : V_MPEG4/ISO/AVC\n      Duration : 2h 19mn\n      Bit rate : 4 484 Kbps\n      Nominal bit rate : 4 600 Kbps\n      Width : 944 pixels\n      Height : 720 pixels\n      Display aspect ratio : 4:3\n      Frame rate : 23.976 fps\n      Resolution : 24 bits\n      Colorimetry : 4:2:0\n      Scan type : Progressive\n      Bits/(Pixel*Frame) : 0.275\n      Stream size : 4.37 GiB (73%)\n   Audio #2\n      ID : 2\n      Format : DTS\n      Format/Info : Digital Theater Systems\n      Codec ID : A_DTS\n      Duration : 2h 19mn\n      Bit rate mode : Constant\n      Bit rate : 1 510 Kbps\n      Channel(s) : 6 channels\n      Channel positions : Front: L C R, Surround: L R, LFE\n      Sampling rate : 48.0 KHz\n      Resolution : 24 bits\n      Stream size : 1.47 GiB (25%)\n      Language : German\n   Text #3\n      ID : 3\n      Format : UTF-8\n      Codec ID : S_TEXT/UTF8\n      Codec ID/Info : UTF-8 Plain Text\n      Language: English\n   Text #4\n      ID : 4\n      Format : VobSub\n      Codec ID : S_VOBSUB\n      Codec ID/Info : The same subtitle format used on DVDs\n      Language : Italian\n   Text #5\n      ID : 5\n      Format : VobSub\n      Codec ID : S_VOBSUB\n      Codec ID/Info : The same subtitle format used on DVDs\n      Language : Italian\n &lt;a href=&quot;\nhttp://www.imdb.com/title/tt1437357/&quot; rel=&quot;nofollow&quot; target=&quot;_NEW&quot;&gt;\nhttp://www.imdb.com/title/tt1437357/&lt;/a&gt;\n\nAudio: German\nSubtitles: English and Italian (in mkv)","torrent":{"xt":"urn:btih:1a34522b49676c5851f836608eee10c6970aa05d","amp;dn":"Faust+2011+720p+BluRay+x264+DTS-EA","amp;tr":["udp%3A%2F%2Ftracker.openbittorrent.com%3A80","udp%3A%2F%2Fopen.demonii.com%3A1337","udp%3A%2F%2Ftracker.coppersurfer.tk%3A6969","udp%3A%2F%2Fexodus.desync.com%3A6969"],"infoHash":"1a34522b49676c5851f836608eee10c6970aa05d","infoHashBuffer":{"type":"Buffer","data":[26,52,82,43,73,103,108,88,81,248,54,96,142,238,16,198,151,10,160,93]},"announce":[],"urlList":[]}}